<?xml version="1.0" encoding="UTF-8" standalone="no"?>
<svg
   id="Layer_1"
   data-name="Layer 1"
   viewBox="0 0 162.40001 165.394"
   version="1.1"
   sodipodi:docname="LXD-Outline-Dark-Digital.svg"
   width="162.40001"
   height="165.394"
   inkscape:version="1.4.2 (2aeb623e1d, 2025-05-12)"
   xmlns:inkscape="http://www.inkscape.org/namespaces/inkscape"
   xmlns:sodipodi="http://sodipodi.sourceforge.net/DTD/sodipodi-0.dtd"
   xmlns="http://www.w3.org/2000/svg"
   xmlns:svg="http://www.w3.org/2000/svg">
  <sodipodi:namedview
     id="namedview13"
     pagecolor="#ffffff"
     bordercolor="#000000"
     borderopacity="0.25"
     inkscape:showpageshadow="2"
     inkscape:pageopacity="0.0"
     inkscape:pagecheckerboard="0"
     inkscape:deskcolor="#d1d1d1"
     inkscape:zoom="1.755"
     inkscape:cx="312.25071"
     inkscape:cy="11.965812"
     inkscape:window-width="1920"
     inkscape:window-height="952"
     inkscape:window-x="0"
     inkscape:window-y="0"
     inkscape:window-maximized="1"
     inkscape:current-layer="Layer_1" />
  <defs
     id="defs1">
    <style
       id="style1">
      .cls-1 {
        fill: none;
      }

      .cls-2 {
        fill: #e95420;
      }

      .cls-3 {
        fill: #fff;
      }
    </style>
  </defs>
  <path
     class="cls-3"
     d="M 124.17301,68.765 V 24.85201 L 81.20001,0 38.21001,24.85201 V 68.765 L 0,90.83 v 49.711 l 42.97301,24.853 38.227,-22.16 38.20899,22.056 42.99101,-24.851 V 90.726 L 124.173,68.765 Z M 81.20001,11.183 114.543,30.444 V 68.765 L 81.20001,88.13699 47.73701,68.869 V 30.546 l 33.463,-19.36301 z M 42.97302,154.211 9.63002,134.95 V 96.422 l 33.24,-19.166 33.566,19.373 V 134.95 Z M 152.77001,134.95 119.409,154.211 86.067,134.95 V 96.629 l 33.549,-19.373 33.25601,19.166 V 134.95 H 152.77 Z"
     id="path2" />
  <polygon
     class="cls-3"
     points="176.33719,294.2937 157.9912,305.0637 157.9912,326.7147 176.33719,315.8427 "
     id="polygon3"
     transform="translate(-35.26818,-187.8293)" />
  <polygon
     class="cls-3"
     points="154.67801,299.3676 173.00601,288.6006 154.57401,278.3486 136.246,288.9096 "
     id="polygon4"
     transform="translate(-35.26818,-187.8293)" />
  <polygon
     class="cls-3"
     points="151.4678,305.0641 132.8288,294.6051 133.0358,316.1521 151.4678,326.9211 "
     id="polygon5"
     transform="translate(-35.26818,-187.8293)" />
  <polygon
     class="cls-3"
     points="78.242,299.3676 96.586,288.6006 78.138,278.3486 59.81,288.9096 "
     id="polygon6"
     transform="translate(-35.26818,-187.8293)" />
  <polygon
     class="cls-3"
     points="75.0318,305.0641 56.4958,294.6051 56.5998,316.1521 75.0318,326.9211 "
     id="polygon7"
     transform="translate(-35.26818,-187.8293)" />
  <polygon
     class="cls-3"
     points="100.0031,294.2937 81.5551,305.0637 81.5551,326.7147 100.0031,315.8427 "
     id="polygon8"
     transform="translate(-35.26818,-187.8293)" />
  <polygon
     class="cls-3"
     points="98.0366,222.9323 116.36459,233.2963 134.6926,222.5183 116.36459,212.37129 "
     id="polygon9"
     transform="translate(-35.26818,-187.8293)" />
  <polygon
     class="cls-3"
     points="94.7234,228.53171 94.8264,250.17371 113.1544,260.8407 113.1544,238.99069 "
     id="polygon10"
     transform="translate(-35.26818,-187.8293)" />
  <polygon
     class="cls-3"
     points="138.11,228.11861 119.678,238.9906 119.678,260.7366 138.11,249.86461 "
     id="polygon11"
     transform="translate(-35.26818,-187.8293)" />
</svg>
